<?xml version="1.0" encoding="UTF-8"?><svg id="Layer_2" xmlns="http://www.w3.org/2000/svg" viewBox="0 0 583.76 383.17"><defs><style>.cls-1{fill:#231f20;}</style></defs><g id="Layer_1-2"><path class="cls-1" d="m262.12,256.59c-3.22,5.16-4.92,11.09-4.92,17.17,0,18.44,15.55,33.43,34.68,33.43s34.69-14.99,34.69-33.43c0-6.18-1.76-12.19-5.08-17.43l-29.59-43-29.77,43.26Zm317.18,126.58h-66.29c-2.47,0-4.47-2-4.47-4.46v-226.22c0-42.62-35.58-77.29-79.31-77.29-26.38,0-50.91,12.71-65.72,34.02l-.41.59-25.58,37.17,46.73,67.92c11.45,17.55,17.51,37.9,17.51,58.85,0,59.91-49.3,108.65-109.9,108.65-70.76,0-126.12-66.47-105.54-139.57,2.74-9.74,7.2-18.92,12.8-27.35l.64-.97,46.48-67.53-25.8-37.47h0c-14.8-21.47-39.44-34.3-65.93-34.3-43.73,0-79.32,34.66-79.32,77.29v226.22c0,2.46-2,4.46-4.46,4.46H4.47c-2.47,0-4.47-2-4.47-4.46v-226.22C0,68.42,69.33,0,154.53,0c51.23,0,99.01,24.98,127.84,66.84l9.52,13.82,9.47-13.78C330.19,25,377.99,0,429.24,0c85.2,0,154.52,68.42,154.52,152.5v226.22c0,2.46-2,4.46-4.46,4.46"/></g></svg>